<svg width="32" height="33" viewBox="0 0 32 33" fill="none" xmlns="http://www.w3.org/2000/svg">
<g clip-path="url(#clip0_120_3653)">
<path d="M16 32.5C24.8366 32.5 32 25.3366 32 16.5C32 7.66344 24.8366 0.5 16 0.5C7.16344 0.5 0 7.66344 0 16.5C0 25.3366 7.16344 32.5 16 32.5Z" fill="#22996E"/>
<path d="M16 23.6111H7.2889C6.04446 23.6111 5.33335 22.3667 6.04446 21.3L11.0222 13.4778C11.3778 12.9444 11.9111 12.5889 12.6222 12.5889H19.3778C20.0889 12.5889 20.6222 12.9444 20.9778 13.4778L25.9556 21.3C26.6667 22.3667 25.9556 23.6111 24.7111 23.6111H16Z" fill="white"/>
<path d="M16.8889 5.83334L19.0222 9.03334C19.3778 9.74445 19.0222 10.6333 18.1334 10.6333H13.8667C12.9778 10.6333 12.6222 9.74445 12.9778 9.03334L15.1111 5.83334C15.6445 5.12223 16.5334 5.12223 16.8889 5.83334Z" fill="white"/>
</g>
<defs>
<clipPath id="clip0_120_3653">
<rect y="0.5" width="32" height="32" rx="16" fill="white"/>
</clipPath>
</defs>
</svg>
