<svg width="32" height="33" viewBox="0 0 32 33" fill="none" xmlns="http://www.w3.org/2000/svg">
<g clip-path="url(#clip0_120_3667)">
<path d="M16 32.5C24.8366 32.5 32 25.3366 32 16.5C32 7.66344 24.8366 0.5 16 0.5C7.16344 0.5 0 7.66344 0 16.5C0 25.3366 7.16344 32.5 16 32.5Z" fill="#0CE466"/>
<path fill-rule="evenodd" clip-rule="evenodd" d="M15.9999 18.2296C14.1696 18.2296 12.6846 16.746 12.6846 14.9143C12.6846 13.0825 14.1696 11.599 15.9999 11.599C17.8301 11.599 19.3152 13.0825 19.3152 14.9143C19.3152 16.746 17.8301 18.2296 15.9999 18.2296ZM14.5584 14.9143C14.5584 15.7107 15.2041 16.3557 15.9999 16.3557C16.7956 16.3557 17.4413 15.7107 17.4413 14.9143C17.4413 14.1179 16.7956 13.4728 15.9999 13.4728C15.2041 13.4728 14.5584 14.1179 14.5584 14.9143Z" fill="black"/>
<path fill-rule="evenodd" clip-rule="evenodd" d="M5.33325 14.9187L11.6756 8.57193H20.3242L26.6665 14.9187L15.9999 25.5809L5.33325 14.9187ZM20.9008 12.6079C18.206 9.9013 13.7938 9.9013 11.099 12.608L8.79272 14.9143L11.099 17.2206C13.7938 19.9272 18.206 19.9272 20.9008 17.2206L23.2071 14.9143L20.9008 12.6079Z" fill="black"/>
</g>
<defs>
<clipPath id="clip0_120_3667">
<rect y="0.5" width="32" height="32" rx="16" fill="white"/>
</clipPath>
</defs>
</svg>
