<svg width="256" height="256" viewBox="0 0 256 256" fill="none" xmlns="http://www.w3.org/2000/svg">
<g clip-path="url(#clip0_1008_7)">
<circle cx="128" cy="128" r="128" fill="#303647"/>
<path d="M38.4545 152.682C35.0455 152.682 32.0909 151.932 29.5909 150.432C27.0909 148.932 25.1515 146.833 23.7727 144.136C22.4091 141.439 21.7273 138.288 21.7273 134.682C21.7273 131.076 22.4091 127.917 23.7727 125.205C25.1515 122.492 27.0909 120.386 29.5909 118.886C32.0909 117.386 35.0455 116.636 38.4545 116.636C41.8636 116.636 44.8182 117.386 47.3182 118.886C49.8182 120.386 51.75 122.492 53.1136 125.205C54.4924 127.917 55.1818 131.076 55.1818 134.682C55.1818 138.288 54.4924 141.439 53.1136 144.136C51.75 146.833 49.8182 148.932 47.3182 150.432C44.8182 151.932 41.8636 152.682 38.4545 152.682ZM38.5 146.091C40.3485 146.091 41.8939 145.583 43.1364 144.568C44.3788 143.538 45.303 142.159 45.9091 140.432C46.5303 138.705 46.8409 136.78 46.8409 134.659C46.8409 132.523 46.5303 130.591 45.9091 128.864C45.303 127.121 44.3788 125.735 43.1364 124.705C41.8939 123.674 40.3485 123.159 38.5 123.159C36.6061 123.159 35.0303 123.674 33.7727 124.705C32.5303 125.735 31.5985 127.121 30.9773 128.864C30.3712 130.591 30.0682 132.523 30.0682 134.659C30.0682 136.78 30.3712 138.705 30.9773 140.432C31.5985 142.159 32.5303 143.538 33.7727 144.568C35.0303 145.583 36.6061 146.091 38.5 146.091ZM87.8239 118.25C87.6117 116.265 86.7178 114.72 85.142 113.614C83.5814 112.508 81.5511 111.955 79.0511 111.955C77.2936 111.955 75.786 112.22 74.5284 112.75C73.2708 113.28 72.3087 114 71.642 114.909C70.9754 115.818 70.6345 116.856 70.6193 118.023C70.6193 118.992 70.839 119.833 71.2784 120.545C71.733 121.258 72.3466 121.864 73.1193 122.364C73.892 122.848 74.7481 123.258 75.6875 123.591C76.6269 123.924 77.5739 124.205 78.5284 124.432L82.892 125.523C84.6496 125.932 86.339 126.485 87.9602 127.182C89.5966 127.879 91.0587 128.758 92.3466 129.818C93.6496 130.879 94.6799 132.159 95.4375 133.659C96.1951 135.159 96.5739 136.917 96.5739 138.932C96.5739 141.659 95.8769 144.061 94.483 146.136C93.089 148.197 91.0739 149.811 88.4375 150.977C85.8163 152.129 82.642 152.705 78.9148 152.705C75.2936 152.705 72.1496 152.144 69.483 151.023C66.8314 149.902 64.7557 148.265 63.2557 146.114C61.7708 143.962 60.9678 141.341 60.8466 138.25H69.142C69.2633 139.871 69.7633 141.22 70.642 142.295C71.5208 143.371 72.6648 144.174 74.0739 144.705C75.4981 145.235 77.089 145.5 78.8466 145.5C80.6799 145.5 82.286 145.227 83.6648 144.682C85.0587 144.121 86.1496 143.348 86.9375 142.364C87.7254 141.364 88.1269 140.197 88.142 138.864C88.1269 137.652 87.7708 136.652 87.0739 135.864C86.3769 135.061 85.3996 134.394 84.142 133.864C82.8996 133.318 81.4451 132.833 79.7784 132.409L74.483 131.045C70.6496 130.061 67.6193 128.568 65.392 126.568C63.1799 124.553 62.0739 121.879 62.0739 118.545C62.0739 115.803 62.8163 113.402 64.3011 111.341C65.8011 109.28 67.839 107.682 70.4148 106.545C72.9905 105.394 75.9072 104.818 79.1648 104.818C82.4678 104.818 85.3617 105.394 87.8466 106.545C90.3466 107.682 92.3087 109.265 93.733 111.295C95.1572 113.311 95.892 115.629 95.9375 118.25H87.8239ZM121.432 136.364H129.068L133.591 142.227L136.818 146.045L144.568 156H136.386L131.114 149.318L128.864 146.136L121.432 136.364ZM145.682 128.727C145.682 133.742 144.742 138.038 142.864 141.614C141 145.174 138.455 147.902 135.227 149.795C132.015 151.689 128.371 152.636 124.295 152.636C120.22 152.636 116.568 151.689 113.341 149.795C110.129 147.886 107.583 145.152 105.705 141.591C103.841 138.015 102.909 133.727 102.909 128.727C102.909 123.712 103.841 119.424 105.705 115.864C107.583 112.288 110.129 109.553 113.341 107.659C116.568 105.765 120.22 104.818 124.295 104.818C128.371 104.818 132.015 105.765 135.227 107.659C138.455 109.553 141 112.288 142.864 115.864C144.742 119.424 145.682 123.712 145.682 128.727ZM137.205 128.727C137.205 125.197 136.652 122.22 135.545 119.795C134.455 117.356 132.939 115.515 131 114.273C129.061 113.015 126.826 112.386 124.295 112.386C121.765 112.386 119.53 113.015 117.591 114.273C115.652 115.515 114.129 117.356 113.023 119.795C111.932 122.22 111.386 125.197 111.386 128.727C111.386 132.258 111.932 135.242 113.023 137.682C114.129 140.106 115.652 141.947 117.591 143.205C119.53 144.447 121.765 145.068 124.295 145.068C126.826 145.068 129.061 144.447 131 143.205C132.939 141.947 134.455 140.106 135.545 137.682C136.652 135.242 137.205 132.258 137.205 128.727ZM149.608 112.523V105.455H186.744V112.523H172.358V152H163.994V112.523H149.608ZM193.903 152V105.455H202.335V125.159H223.903V105.455H232.358V152H223.903V132.227H202.335V152H193.903Z" fill="white"/>
</g>
<defs>
<clipPath id="clip0_1008_7">
<rect width="256" height="256" fill="white"/>
</clipPath>
</defs>
</svg>
