<svg width="32" height="33" viewBox="0 0 32 33" fill="none" xmlns="http://www.w3.org/2000/svg">
<g clip-path="url(#clip0_120_3659)">
<path d="M32 0.5H0V32.5H32V0.5Z" fill="white"/>
<path d="M16 32.5C24.8366 32.5 32 25.3366 32 16.5C32 7.66344 24.8366 0.5 16 0.5C7.16344 0.5 0 7.66344 0 16.5C0 25.3366 7.16344 32.5 16 32.5Z" fill="#178DD0"/>
<path d="M7.46268 17.1239C7.5453 16.3873 7.5866 16.0189 7.90854 15.7606C8.23048 15.5023 8.598 15.5417 9.33305 15.6204C9.66482 15.656 10.0499 15.702 10.4907 15.7616C10.8781 15.814 11.2309 15.8951 11.5476 15.9912C12.1934 16.1873 12.5164 16.2853 13.0082 16.9486C13.5 17.6119 13.5 18.1452 13.5 19.2119C13.5 19.8686 13.5 20.7019 13.5 21.75C13.5 23.2226 13.5 24.2711 13.5 25.0015C13.5 25.7076 13.5 26.0607 13.2803 26.2803C13.0607 26.5 12.7072 26.5 12.0004 26.5C11.4586 26.5 10.8361 26.5 10.25 26.5C10.2094 26.5 10.1692 26.5 10.1293 26.5C8.9673 26.4995 8.38631 26.4993 7.95647 26.1053C7.52663 25.7113 7.47891 25.1667 7.38349 24.0774C7.30868 23.2236 7.25 22.1783 7.25 21C7.25 19.4261 7.35469 18.0868 7.46268 17.1239Z" fill="white"/>
<path d="M24.2873 17.1239C24.2047 16.3873 24.1634 16.0189 23.8415 15.7606C23.5195 15.5023 23.152 15.5417 22.417 15.6204C22.0852 15.656 21.7001 15.702 21.2593 15.7616C20.8719 15.814 20.5191 15.8951 20.2024 15.9912C19.5566 16.1873 19.2336 16.2853 18.7418 16.9486C18.25 17.6119 18.25 18.1452 18.25 19.2119C18.25 19.8686 18.25 20.7019 18.25 21.75C18.25 23.2226 18.25 24.2711 18.25 25.0015C18.25 25.7076 18.25 26.0607 18.4697 26.2803C18.6893 26.5 19.0428 26.5 19.7496 26.5C20.2914 26.5 20.9139 26.5 21.5 26.5C21.5406 26.5 21.5808 26.5 21.6207 26.5C22.7827 26.4995 23.3637 26.4993 23.7935 26.1053C24.2234 25.7113 24.2711 25.1667 24.3665 24.0774C24.4413 23.2236 24.5 22.1783 24.5 21C24.5 19.4261 24.3953 18.0868 24.2873 17.1239Z" fill="white"/>
<path d="M7.5 9.01043C7.5 7.85905 7.5 7.28336 7.83282 6.87106C7.87514 6.81864 7.92494 6.76501 7.97409 6.71893C8.36065 6.35653 8.91977 6.31507 10.038 6.23215C11.6002 6.11631 13.7332 6 16 6C18.2668 6 20.3998 6.11631 21.962 6.23215C23.0802 6.31507 23.6393 6.35653 24.0259 6.71893C24.0751 6.76501 24.1249 6.81864 24.1672 6.87106C24.5 7.28336 24.5 7.85905 24.5 9.01043C24.5 10.1522 24.5 10.7231 24.1674 11.1353C24.1254 11.1875 24.0751 11.2416 24.0263 11.2874C23.64 11.6498 23.0881 11.6911 21.9842 11.7736C20.4614 11.8875 18.3601 12 16 12C13.6399 12 11.5386 11.8875 10.0158 11.7736C8.9119 11.6911 8.35997 11.6498 7.97371 11.2874C7.92485 11.2416 7.87462 11.1875 7.83255 11.1353C7.5 10.7231 7.5 10.1522 7.5 9.01043Z" fill="white"/>
</g>
<defs>
<clipPath id="clip0_120_3659">
<rect y="0.5" width="32" height="32" rx="16" fill="white"/>
</clipPath>
</defs>
</svg>
