<svg width="702" height="702" viewBox="0 0 702 702" fill="none" xmlns="http://www.w3.org/2000/svg">
<path d="M123.036 546.123C172.692 486.365 195.035 429.953 190.045 376.886C185.054 323.819 157.248 270.193 106.627 215.997C112.594 280.976 109.764 334.602 98.1264 376.886C86.4886 419.171 61.5457 454.019 23.2757 481.418L123.036 546.123Z" fill="url(#paint0_linear)"/>
<path d="M203.196 313.289C208.362 325.136 212.388 337.53 215.273 350.463C260.025 331.618 284.957 305.293 290.058 271.509C295.158 237.715 280.427 196.461 245.865 147.727C239.601 181.566 231.331 209.448 221.064 231.386C210.787 253.323 198.513 269.316 184.231 279.352C191.701 290.123 198.019 301.432 203.196 313.289Z" fill="url(#paint1_linear)"/>
<path d="M384.246 455.401C445.551 465.207 507.041 483.854 568.719 511.341C476.647 503.52 396.992 501.502 329.765 505.276C262.537 509.049 207.726 518.624 165.354 533.992C174.129 521.86 181.489 508.994 187.412 495.415C193.335 481.824 197.832 467.51 200.904 452.461C261.824 444.607 322.942 445.584 384.246 455.401Z" fill="url(#paint2_linear)"/>
<path d="M252.907 424.282C266.65 423.997 280.449 423.997 294.303 424.282C361.739 383.314 421.255 344.145 472.852 306.752C524.46 269.371 568.137 233.777 603.896 199.971C528.902 227.459 459.02 256.164 394.283 286.098C329.534 316.021 269.919 347.172 215.437 379.53C216.041 387.987 216.041 396.082 215.437 403.825C214.845 411.569 213.638 418.951 211.851 425.982C225.474 425.138 239.163 424.567 252.907 424.282Z" fill="url(#paint3_linear)"/>
<path d="M400.316 431.204C420.454 434.406 440.867 438.256 461.543 442.765C484.161 434.505 514.467 427.452 552.474 421.617C590.481 415.771 636.187 411.142 689.583 407.709C607.252 387.614 537.019 378.883 478.863 381.515C420.717 384.159 374.649 398.166 340.678 423.536C360.291 425.445 380.166 428.001 400.316 431.204Z" fill="url(#paint4_linear)"/>
<defs>
<linearGradient id="paint0_linear" x1="99.5524" y1="232.559" x2="109.995" y2="470.439" gradientUnits="userSpaceOnUse">
<stop stop-color="#52B3E3"/>
<stop offset="1" stop-color="#14FA78"/>
</linearGradient>
<linearGradient id="paint1_linear" x1="258.051" y1="243.429" x2="241.104" y2="126.163" gradientUnits="userSpaceOnUse">
<stop stop-color="#14FA78"/>
<stop offset="1" stop-color="#4FC2A9"/>
</linearGradient>
<linearGradient id="paint2_linear" x1="373.398" y1="484.885" x2="618.44" y2="513.524" gradientUnits="userSpaceOnUse">
<stop stop-color="#14FA78"/>
<stop offset="1" stop-color="#4FC2A9"/>
</linearGradient>
<linearGradient id="paint3_linear" x1="405.493" y1="317.458" x2="619.373" y2="190.165" gradientUnits="userSpaceOnUse">
<stop stop-color="#14FA78"/>
<stop offset="1" stop-color="#4FC2A9"/>
</linearGradient>
<linearGradient id="paint4_linear" x1="506.647" y1="406.019" x2="703.272" y2="406.019" gradientUnits="userSpaceOnUse">
<stop stop-color="#14FA78"/>
<stop offset="1" stop-color="#4FC2A9"/>
</linearGradient>
</defs>
</svg>
