<svg width="594" height="145" viewBox="0 0 594 145" fill="none" xmlns="http://www.w3.org/2000/svg">
<path d="M241.118 9.09601L307.654 142.545H277.637L267.419 120.849H215.649L205.236 142.545H174.974L241.118 9.09601ZM257.691 98.7611L241.118 63.2457L224.594 98.7611H257.691Z" fill="white"/>
<path d="M369.213 92.0472C369.09 81.4225 372.139 71.0053 377.965 62.1448C383.823 53.2384 392.175 46.2813 401.964 42.155C411.777 38.004 422.587 36.8522 433.047 38.8428C443.506 40.8335 453.152 45.879 460.782 53.35C466.44 58.9025 470.788 65.6616 473.507 73.1294C476.226 80.5973 477.247 88.5834 476.493 96.5006C475.74 104.418 473.232 112.064 469.154 118.877C465.076 125.689 459.531 131.494 452.929 135.865C444.05 141.78 433.636 144.933 422.988 144.93C415.958 145.066 408.971 143.795 402.432 141.193C395.893 138.591 389.933 134.708 384.896 129.769C379.895 124.867 375.929 118.999 373.234 112.518C370.539 106.036 369.171 99.0735 369.213 92.0472H369.213ZM422.988 119.34C426.597 119.423 430.186 118.773 433.54 117.429C436.895 116.085 439.946 114.074 442.511 111.517C445.056 108.976 447.057 105.938 448.391 102.59C449.725 99.2412 450.364 95.6536 450.268 92.0472C450.264 88.4746 449.556 84.9383 448.184 81.6433C446.813 78.3483 444.805 75.3598 442.277 72.8517C437.133 67.7562 430.205 64.9009 422.988 64.9009C415.771 64.9009 408.843 67.7562 403.699 72.8517C401.171 75.3594 399.163 78.3475 397.791 81.6426C396.419 84.9377 395.711 88.4746 395.708 92.0472C395.603 95.6639 396.24 99.2636 397.578 102.622C398.916 105.98 400.926 109.025 403.485 111.566C406.054 114.127 409.114 116.134 412.478 117.467C415.853 118.804 419.461 119.441 423.086 119.34H422.988Z" fill="white"/>
<path d="M490.989 92.7281C490.821 85.638 492.098 78.5885 494.74 72.0141C497.382 65.4396 501.335 59.4798 506.353 54.5014C511.407 49.4864 517.414 45.5477 524.014 42.9209C530.613 40.2941 537.672 39.0331 544.767 39.2126C551.291 38.9747 557.795 40.0837 563.878 42.4719C569.961 44.86 575.493 48.4762 580.135 53.0981C584.742 57.6875 588.349 63.1922 590.727 69.2611C593.105 75.33 594.202 81.8307 593.948 88.3496C594.113 92.4007 593.884 96.4579 593.265 100.464H517.047C520.372 113.601 531.713 121.967 547.308 121.967C556.646 122.313 565.749 118.98 572.683 112.675L588.13 129.703C582.638 134.837 576.19 138.825 569.159 141.439C562.128 144.052 554.652 145.239 547.163 144.93C514.066 144.93 490.989 123.573 490.989 92.7281ZM568.77 80.6627C568.28 69.6191 558.407 62.0787 544.326 62.0787C538.392 61.6732 532.495 63.2914 527.586 66.6726C522.703 70.0311 519.106 74.9666 517.388 80.6627H568.77Z" fill="white"/>
<path d="M350.311 0H323.914V142.545H350.311V0Z" fill="white"/>
<path d="M82.748 0.28553L38.4358 90.5555C59.6042 74.1124 82.9722 60.8222 107.834 51.0863L82.748 0.28553Z" fill="#D9ED92"/>
<path d="M85.4127 142.138L153.743 142.138L129.669 93.7792C109.442 110.656 94.5975 126.877 85.4127 142.138Z" fill="#52B69A"/>
<path d="M166.555 51.8684C150.295 52.7647 134.242 55.9249 118.864 61.257C51.3719 83.9794 1.86557 140.023 1.48368e-05 142.138L69.9801 142.138C82.9402 117.199 107.615 94.4769 128.739 77.893C140.8 68.4609 153.429 59.7698 166.555 51.8684Z" fill="url(#paint0_linear_3_127)"/>
<defs>
<linearGradient id="paint0_linear_3_127" x1="10.4472" y1="156.935" x2="167.314" y2="42.0656" gradientUnits="userSpaceOnUse">
<stop offset="0.190531" stop-color="#99D98C"/>
<stop offset="0.927627" stop-color="#D9ED92"/>
</linearGradient>
</defs>
</svg>
