<svg width="24" height="24" viewBox="0 0 24 24" fill="none" xmlns="http://www.w3.org/2000/svg">
<path d="M16.9297 8.13106L8.13016 16.9306C7.82951 17.2313 7.33978 17.2402 7.04986 16.9503C6.75995 16.6603 6.76885 16.1706 7.0695 15.8699L15.8691 7.0704C16.1697 6.76975 16.6594 6.76084 16.9494 7.05076C17.2393 7.34067 17.2304 7.83041 16.9297 8.13106Z" fill="#C2D1DD"/>
<path d="M16.9494 16.9492C16.6594 17.2392 16.1697 17.2303 15.8691 16.9296L7.0695 8.13005C6.76885 7.8294 6.75995 7.33966 7.04986 7.04975C7.33978 6.75983 7.82951 6.76874 8.13016 7.06939L16.9297 15.8689C17.2304 16.1696 17.2393 16.6593 16.9494 16.9492Z" fill="#C2D1DD"/>
</svg>
