<svg width="14" height="10" viewBox="0 0 14 10" fill="none" xmlns="http://www.w3.org/2000/svg">
<path fill-rule="evenodd" clip-rule="evenodd" d="M14 5.00063C14 4.86802 13.9473 4.74085 13.8536 4.64708C13.7598 4.55331 13.6326 4.50063 13.5 4.50063H1.707L4.854 1.35463C4.94789 1.26075 5.00063 1.13341 5.00063 1.00063C5.00063 0.867856 4.94789 0.740518 4.854 0.646631C4.76011 0.552745 4.63277 0.5 4.5 0.5C4.36722 0.5 4.23989 0.552745 4.146 0.646631L0.145998 4.64663C0.0994349 4.69308 0.0624924 4.74825 0.0372858 4.809C0.0120792 4.86974 -0.0008955 4.93486 -0.0008955 5.00063C-0.0008955 5.0664 0.0120792 5.13152 0.0372858 5.19226C0.0624924 5.25301 0.0994349 5.30819 0.145998 5.35463L4.146 9.35463C4.23989 9.44852 4.36722 9.50126 4.5 9.50126C4.63277 9.50126 4.76011 9.44852 4.854 9.35463C4.94789 9.26075 5.00063 9.13341 5.00063 9.00063C5.00063 8.86786 4.94789 8.74052 4.854 8.64663L1.707 5.50063H13.5C13.6326 5.50063 13.7598 5.44795 13.8536 5.35419C13.9473 5.26042 14 5.13324 14 5.00063Z" fill="#C2D1DD"/>
</svg>
